<?xml version="1.0" standalone="no"?>
<!DOCTYPE svg PUBLIC "-//W3C//DTD SVG 20010904//EN"
 "http://www.w3.org/TR/2001/REC-SVG-20010904/DTD/svg10.dtd">
<svg version="1.0" xmlns="http://www.w3.org/2000/svg"
 width="300.000000pt" height="300.000000pt" viewBox="0 0 300.000000 300.000000"
 preserveAspectRatio="xMidYMid meet">
<metadata>
Created by potrace 1.14, written by Peter Selinger 2001-2017
</metadata>
<g transform="translate(0.000000,300.000000) scale(0.100000,-0.100000)"
fill="#000000" stroke="none">
<path d="M0 2942 l0 -58 1488 -549 c818 -302 1493 -551 1500 -553 9 -3 12 122
12 607 l0 611 -405 0 c-223 0 -405 -2 -405 -5 0 -3 124 -195 276 -427 152
-232 278 -427 280 -433 4 -10 -808 128 -846 144 -8 3 90 7 218 9 127 1 232 6
231 10 0 4 -127 97 -281 207 l-281 200 -62 145 -62 145 -831 3 -832 2 0 -58z"/>
<path d="M0 2476 l0 -124 183 -61 c636 -210 1010 -331 1013 -329 5 6 -156 272
-169 279 -14 9 -1013 359 -1021 359 -3 0 -6 -56 -6 -124z"/>
<path d="M1430 2094 c0 -4 39 -65 86 -138 l87 -131 293 -96 294 -97 70 76 c39
41 69 76 68 78 -3 3 -889 314 -895 314 -2 0 -3 -3 -3 -6z"/>
<path d="M0 1375 l0 -687 376 481 c207 265 381 481 387 481 19 0 1822 -502
1830 -510 5 -4 -254 -233 -575 -508 l-583 -502 -717 0 -718 0 0 -65 0 -65
1500 0 1500 0 0 563 0 563 -1487 464 c-819 255 -1494 465 -1500 468 -10 3 -13
-138 -13 -683z"/>
<path d="M2580 1610 c-30 -39 -56 -73 -58 -78 -2 -6 341 -124 456 -157 23 -7
23 -6 20 86 l-3 92 -180 63 c-99 35 -180 64 -180 63 0 0 -25 -31 -55 -69z"/>
<path d="M590 884 c-179 -217 -333 -405 -343 -418 l-17 -24 597 5 598 5 260
259 c142 142 257 261 254 264 -5 5 -1013 306 -1021 304 -2 0 -149 -178 -328
-395z m671 26 c204 -169 256 -216 242 -222 -22 -8 -951 -121 -962 -116 -11 4
441 558 452 555 4 -1 124 -99 268 -217z"/>
</g>
</svg>
